<svg xmlns="http://www.w3.org/2000/svg" width="30.476" height="40" viewBox="0 0 30.476 40">
  <path id="ic_lock_open_24px" d="M19.238,31.476a3.81,3.81,0,1,0-3.81-3.81A3.821,3.821,0,0,0,19.238,31.476ZM30.667,14.333h-1.9v-3.81a9.524,9.524,0,1,0-19.048,0h3.619a5.9,5.9,0,0,1,11.81,0v3.81H7.81A3.821,3.821,0,0,0,4,18.143V37.19A3.821,3.821,0,0,0,7.81,41H30.667a3.821,3.821,0,0,0,3.81-3.81V18.143A3.821,3.821,0,0,0,30.667,14.333Zm0,22.857H7.81V18.143H30.667Z" transform="translate(-4 -1)" fill="#657786"/>
</svg>
