<svg xmlns="http://www.w3.org/2000/svg" width="67.554" height="40" viewBox="0 0 67.554 40">
  <g id="グループ_90" data-name="グループ 90" transform="translate(79 -1652)">
    <g id="グループ_85" data-name="グループ 85" transform="translate(-79 1652)">
      <path id="パス_3" data-name="パス 3" d="M41.495,4.435c0-2.96,4.45-4.435,4.45-4.435H16.3L0,40H13.33L16.3,32.6h23.71L42.97,40H56.295S41.495,7.395,41.495,4.435ZM20.75,22.225l4.435-10.37h5.93l4.45,10.37Z" transform="translate(0 0)" fill="#f45d22"/>
      <path id="ic_autorenew_24px" d="M12.444,6.278V9.444l4.222-4.222L12.444,1V4.167A8.429,8.429,0,0,0,5.309,17.107L6.85,15.566a6.2,6.2,0,0,1-.739-2.955A6.338,6.338,0,0,1,12.444,6.278ZM19.58,8.114,18.039,9.655a6.323,6.323,0,0,1-5.594,9.289V15.777L8.222,20l4.222,4.222V21.055A8.429,8.429,0,0,0,19.58,8.114Z" transform="translate(46.665 -1)" fill="#f45d22"/>
    </g>
  </g>
</svg>
