<svg id="Twitter_Social_Icon_Circle_Color" xmlns="http://www.w3.org/2000/svg" width="80" height="80" viewBox="0 0 80 80">
  <g id="Dark_Blue">
    <circle id="circle" data-name="circle" cx="40" cy="40" r="40" fill="#1da1f2"/>
  </g>
  <g id="Logo__x2014__FIXED" transform="translate(17.94 22.9)">
    <path id="path" data-name="path" d="M104.44,152.7c17.74,0,27.44-14.7,27.44-27.44,0-.42,0-.84-.02-1.24a19.758,19.758,0,0,0,4.82-5,19.574,19.574,0,0,1-5.54,1.52,9.639,9.639,0,0,0,4.24-5.34,19.529,19.529,0,0,1-6.12,2.34,9.65,9.65,0,0,0-16.68,6.6,8.837,8.837,0,0,0,.26,2.2,27.359,27.359,0,0,1-19.88-10.08,9.639,9.639,0,0,0,3,12.86,9.473,9.473,0,0,1-4.36-1.2v.12a9.655,9.655,0,0,0,7.74,9.46,9.614,9.614,0,0,1-2.54.34,9.208,9.208,0,0,1-1.82-.18,9.629,9.629,0,0,0,9,6.7A19.386,19.386,0,0,1,92,148.48a17.536,17.536,0,0,1-2.3-.14,26.869,26.869,0,0,0,14.74,4.36" transform="translate(-89.7 -114.5)" fill="#fff"/>
  </g>
</svg>
