<svg xmlns="http://www.w3.org/2000/svg" width="40" height="40" viewBox="0 0 40 40">
  <path id="ic_language_24px" d="M21.98,2A20,20,0,1,0,42,22,19.99,19.99,0,0,0,21.98,2ZM35.84,14h-5.9a31.3,31.3,0,0,0-2.76-7.12A16.059,16.059,0,0,1,35.84,14ZM22,6.08A28.174,28.174,0,0,1,25.82,14H18.18A28.174,28.174,0,0,1,22,6.08ZM6.52,26a15.645,15.645,0,0,1,0-8h6.76A33.03,33.03,0,0,0,13,22a33.03,33.03,0,0,0,.28,4Zm1.64,4h5.9a31.3,31.3,0,0,0,2.76,7.12A15.974,15.974,0,0,1,8.16,30Zm5.9-16H8.16a15.974,15.974,0,0,1,8.66-7.12A31.3,31.3,0,0,0,14.06,14ZM22,37.92A28.174,28.174,0,0,1,18.18,30h7.64A28.174,28.174,0,0,1,22,37.92ZM26.68,26H17.32A29.426,29.426,0,0,1,17,22a29.17,29.17,0,0,1,.32-4h9.36A29.17,29.17,0,0,1,27,22,29.426,29.426,0,0,1,26.68,26Zm.5,11.12A31.3,31.3,0,0,0,29.94,30h5.9A16.059,16.059,0,0,1,27.18,37.12ZM30.72,26A33.031,33.031,0,0,0,31,22a33.031,33.031,0,0,0-.28-4h6.76a15.645,15.645,0,0,1,0,8Z" transform="translate(-2 -2)" fill="#657786"/>
</svg>
